<svg id="Layer_1" height="512" viewBox="0 0 512 512" width="512" xmlns="http://www.w3.org/2000/svg" data-name="Layer 1"><path d="m470.07 234.98a13.99 13.99 0 0 1 0 19.78l-201.74 201.75a135.22 135.22 0 0 1 -191 0c-52.66-52.66-52.66-138.34 0-191l220.13-220.13a100.466 100.466 0 0 1 142.08 142.08l-195.67 195.67a65.878 65.878 0 0 1 -93.17-93.16l134.53-134.53a13.99 13.99 0 1 1 19.78 19.79l-134.52 134.52a37.894 37.894 0 1 0 53.59 53.59l195.67-195.67a72.482 72.482 0 0 0 -102.51-102.5l-220.13 220.12a107.077 107.077 0 0 0 151.43 151.43l201.74-201.74a13.984 13.984 0 0 1 19.79 0z" fill="#6994fe"/><path d="m93.33 465.51c-52.66-52.66-52.66-138.34 0-191l220.13-220.13a100.627 100.627 0 0 1 112.14-20.629 100.629 100.629 0 0 0 -128.14 11.629l-220.13 220.13c-52.66 52.66-52.66 138.34 0 191a134.426 134.426 0 0 0 37.347 26.395 135.16 135.16 0 0 1 -21.347-17.395z" fill="#597ec6"/><g fill="#284268"><path d="m295.23 206.237-1.376 1.377a6 6 0 0 0 8.487 8.483l1.376-1.376a6 6 0 0 0 -8.487-8.484z"/><path d="m280.065 221.4-61.013 61.014a6 6 0 1 0 8.484 8.485l61.014-61.013a6 6 0 1 0 -8.485-8.486z"/><path d="m460.175 224.879a19.859 19.859 0 0 0 -14.136 5.856l-201.739 201.743a101.075 101.075 0 0 1 -142.945-142.941l220.13-220.129a66.484 66.484 0 0 1 94.023 94.022l-195.67 195.67a31.894 31.894 0 0 1 -45.105-45.1l134.523-134.527a19.991 19.991 0 1 0 -28.271-28.273l-134.523 134.525a71.875 71.875 0 0 0 101.646 101.648l195.671-195.673a106.466 106.466 0 0 0 -150.564-150.564l-220.131 220.13c-55 55-55 144.485 0 199.483a141.208 141.208 0 0 0 199.482 0l201.744-201.742a19.992 19.992 0 0 0 -14.135-34.128zm5.65 25.642-201.743 201.743a129.056 129.056 0 0 1 -182.513-182.513l220.131-220.129a94.466 94.466 0 0 1 133.6 133.594l-195.677 195.671a59.876 59.876 0 0 1 -84.677-84.677l134.524-134.524a7.991 7.991 0 1 1 11.3 11.3l-134.522 134.525a43.893 43.893 0 1 0 62.074 62.075l195.671-195.67a78.484 78.484 0 1 0 -110.993-110.994l-220.129 220.13a113.074 113.074 0 0 0 159.91 159.911l201.743-201.743a7.991 7.991 0 1 1 11.3 11.3z"/></g></svg>