<svg xmlns="http://www.w3.org/2000/svg" width="64" height="64" viewBox="0 0 64 64">
    <defs>
        <linearGradient id="g5jx66afta" x1="50%" x2="50%" y1="100%" y2="0%">
            <stop offset="0%" stop-color="#FFE59A"/>
            <stop offset="100%" stop-color="#FFFFD5"/>
        </linearGradient>
        <linearGradient id="fi06lioqrb" x1="50%" x2="50%" y1="100%" y2="0%">
            <stop offset="0%" stop-color="#FFE59A"/>
            <stop offset="100%" stop-color="#FFFFD5"/>
        </linearGradient>
    </defs>
    <g fill="none" fill-rule="evenodd">
        <g fill-rule="nonzero">
            <g>
                <g>
                    <path fill="#FFB545" d="M39.098 41.696L35.84 13.393V4.018c0-.348-.163-.697-.489-.938L32.093.402c-.62-.536-1.661-.536-2.28 0l-2.118 1.714L25.577.402c-.62-.536-1.662-.536-2.281 0l-2.118 1.714L19.06.402c-.619-.536-1.661-.536-2.28 0l-2.118 1.714L12.544.402c-.62-.536-1.662-.536-2.28 0L8.144 2.116 6.028.402c-.62-.536-1.662-.536-2.281 0L.489 3.08C.163 3.321 0 3.67 0 4.018v35c0 3.696 3.65 6.696 8.145 6.696h32.582l-1.629-4.018z" transform="translate(-688 -3238) translate(688 3238) translate(9.143 9.143)"/>
                    <path fill="url(#g5jx66afta)" d="M19.835 35.235c.765 0 1.385.62 1.385 1.385 0 .766-.62 1.386-1.385 1.386h-8.312c-.766 0-1.385-.62-1.385-1.386 0-.765.62-1.385 1.385-1.385zm5.54 0c.766 0 1.386.62 1.386 1.385s-.62 1.386-1.385 1.386-1.386-.62-1.386-1.386c0-.765.62-1.385 1.386-1.385zm-5.54-5.541c.765 0 1.385.62 1.385 1.385 0 .766-.62 1.386-1.385 1.386h-8.312c-.766 0-1.385-.62-1.385-1.386 0-.765.62-1.385 1.385-1.385zm5.54 0c.766 0 1.386.62 1.386 1.385s-.62 1.386-1.385 1.386-1.386-.62-1.386-1.386c0-.765.62-1.385 1.386-1.385zM22.277 7.546c.742 0 1.344.602 1.344 1.344 0 .741-.602 1.343-1.344 1.343h-2.241l.024.03c.423.578.738 1.219.926 1.901l.02.084h1.271c.696 0 1.268.529 1.337 1.206l.007.137c0 .742-.602 1.343-1.344 1.343H21.06l-.061.268c-.642 2.497-2.843 4.317-5.454 4.429l-.254.005h-.949l5.654 5.493c.218.215.356.496.39.8l.01.155c0 .741-.602 1.343-1.344 1.343-.243 0-.476-.068-.68-.191l-.081-.055-.026.014-7.666-7.569-.107-.122c-.197-.25-.305-.554-.305-.875 0-.78.631-1.41 1.41-1.41h3.157c1.463 0 2.74-.915 3.249-2.247l.011-.038H11.53c-.695 0-1.268-.528-1.337-1.206l-.006-.137c0-.741.601-1.343 1.343-1.343h6.37l-.108-.215c-.572-1.033-1.63-1.724-2.835-1.794l-.203-.006H11.53c-.742 0-1.343-.602-1.343-1.343 0-.742.601-1.344 1.343-1.344z" transform="translate(-688 -3238) translate(688 3238) translate(9.143 9.143)"/>
                    <path fill="url(#fi06lioqrb)" d="M45.122 15.67l-1.628-1.34c-.618-.509-1.66-.509-2.278 0l-.977.804c-.619.509-1.66.509-2.279 0l-2.116-1.741v28.303c0 2.16 2.1 4.018 4.883 4.018 2.858 0 4.883-2.038 4.883-4.232V16.634c0-.375-.162-.697-.488-.964z" transform="translate(-688 -3238) translate(688 3238) translate(9.143 9.143)"/>
                </g>
            </g>
        </g>
    </g>
</svg>
